<?xml version="1.0" standalone="no"?>
<!DOCTYPE svg PUBLIC "-//W3C//DTD SVG 20010904//EN"
 "http://www.w3.org/TR/2001/REC-SVG-20010904/DTD/svg10.dtd">
<svg version="1.0" xmlns="http://www.w3.org/2000/svg"
 width="702.000000pt" height="720.000000pt" viewBox="0 0 702.000000 720.000000"
 preserveAspectRatio="xMidYMid meet">
<metadata>
Created by potrace 1.10, written by Peter Selinger 2001-2011
</metadata>
<g transform="translate(0.000000,720.000000) scale(0.100000,-0.100000)"
fill="#000000" stroke="none">
<path d="M1540 6580 c-19 -4 -62 -13 -94 -19 -33 -6 -64 -15 -70 -21 -5 -5
-21 -10 -35 -10 -15 0 -35 -7 -45 -15 -11 -8 -28 -15 -39 -15 -17 0 -49 -14
-97 -41 -8 -5 -19 -11 -25 -13 -40 -16 -45 -19 -122 -69 -24 -15 -45 -27 -48
-27 -13 0 -169 -127 -236 -192 -73 -70 -164 -184 -225 -278 -44 -70 -124 -230
-124 -250 0 -10 -7 -31 -15 -46 -8 -16 -15 -37 -15 -48 0 -10 -7 -39 -15 -65
-69 -219 -80 -477 -29 -676 23 -89 44 -165 60 -210 8 -23 14 -47 14 -55 0 -8
6 -26 13 -40 35 -65 86 -158 106 -190 11 -19 24 -42 28 -50 15 -34 113 -151
195 -234 111 -111 334 -276 373 -276 7 0 18 -7 25 -15 7 -8 20 -15 30 -15 10
0 23 -7 30 -15 7 -8 25 -15 41 -15 15 0 30 -4 34 -9 3 -5 20 -12 38 -16 17 -4
52 -13 77 -20 120 -37 155 -45 191 -45 22 0 78 -7 126 -15 74 -13 208 -15 856
-13 l768 3 0 760 c-1 761 -8 970 -37 1067 -8 26 -14 57 -14 70 0 13 -6 35 -14
50 -8 15 -17 40 -21 57 -4 17 -11 33 -16 36 -5 4 -9 15 -9 25 0 20 -79 179
-124 250 -99 155 -237 305 -377 410 -44 33 -82 60 -84 60 -3 0 -24 12 -48 27
-63 41 -81 52 -97 58 -8 4 -22 11 -30 16 -8 5 -22 12 -30 15 -8 3 -27 12 -42
20 -14 8 -35 14 -45 14 -11 0 -28 7 -39 15 -10 8 -28 15 -39 15 -10 0 -37 6
-60 14 -101 35 -136 38 -370 41 -132 2 -256 0 -275 -5z m475 -61 c39 -6 88
-17 110 -25 22 -7 65 -18 95 -25 62 -13 312 -130 350 -163 25 -22 36 -30 115
-84 57 -38 305 -303 305 -325 0 -6 7 -18 15 -27 19 -21 58 -90 91 -160 63
-135 72 -157 78 -191 4 -21 13 -51 22 -67 37 -76 40 -160 37 -987 -1 -440 -3
-803 -3 -806 0 -4 -11 -14 -24 -22 -19 -13 -30 -14 -60 -5 -28 9 -42 8 -60 -1
-19 -11 -30 -11 -59 0 -30 10 -41 10 -61 0 -14 -8 -33 -11 -43 -7 -10 4 -261
7 -558 6 -704 -1 -821 9 -1070 92 -118 40 -291 133 -362 196 -12 11 -37 29
-55 40 -65 40 -254 249 -280 308 -7 16 -25 44 -41 63 -34 40 -131 241 -141
291 -4 19 -18 71 -31 115 -60 202 -60 495 0 695 12 41 28 100 35 130 14 59
112 258 145 295 11 12 29 39 40 59 23 46 234 271 286 306 45 30 140 94 194
129 22 15 60 34 85 45 25 10 65 28 90 41 25 12 70 28 100 35 30 7 80 21 111
31 105 34 384 44 544 18z"/>
<path d="M6550 6569 c-36 -4 -420 -8 -855 -8 -530 -1 -803 -5 -830 -12 -22 -6
-65 -15 -95 -20 -30 -6 -59 -14 -64 -20 -6 -5 -22 -9 -36 -9 -14 0 -35 -7 -46
-15 -10 -8 -27 -15 -37 -15 -11 0 -31 -6 -45 -14 -44 -23 -119 -56 -125 -56
-7 0 -109 -61 -117 -69 -3 -4 -30 -23 -60 -43 -30 -21 -68 -50 -85 -65 -16
-15 -46 -42 -66 -59 -98 -82 -227 -251 -299 -391 -14 -26 -37 -69 -52 -94 -16
-25 -28 -55 -28 -66 0 -10 -4 -23 -8 -28 -14 -15 -52 -139 -52 -166 0 -14 -5
-30 -11 -36 -24 -24 -32 -234 -38 -1023 -3 -454 -6 -825 -6 -825 0 0 371 3
825 6 790 6 999 14 1023 38 6 6 22 11 37 11 28 0 110 24 153 46 16 8 35 14 42
14 24 0 198 96 310 170 107 71 208 164 290 265 22 27 54 65 71 85 17 19 34 42
37 50 4 8 17 31 29 50 50 82 106 200 128 270 13 41 29 94 37 118 7 23 13 55
13 70 0 16 5 33 10 38 6 6 17 66 25 134 20 174 23 1674 3 1676 -7 1 -42 -2
-78 -7z m2 -90 c19 -26 20 -47 19 -795 -1 -734 -2 -774 -22 -869 -33 -163 -83
-324 -116 -374 -8 -13 -33 -59 -55 -101 -77 -150 -324 -418 -443 -481 -22 -12
-47 -27 -55 -35 -9 -7 -40 -25 -70 -40 -30 -14 -75 -36 -100 -49 -25 -13 -51
-24 -58 -24 -7 -1 -31 -11 -54 -22 -41 -21 -151 -48 -293 -72 -73 -12 -1544
-15 -1592 -2 -13 3 -28 17 -33 31 -14 35 -13 1576 0 1629 6 22 19 82 30 134
11 51 36 127 55 168 19 41 35 78 35 82 0 14 70 143 93 172 12 15 33 44 47 64
78 113 220 258 341 347 73 53 264 153 324 169 22 6 61 20 87 30 43 18 249 53
358 62 25 2 369 3 764 3 l719 -1 19 -26z"/>
<path d="M5000 6270 c-19 -5 -71 -14 -114 -20 -134 -20 -314 -96 -442 -188
-36 -26 -75 -54 -87 -62 -29 -20 -160 -163 -216 -236 -24 -31 -59 -87 -78
-123 -18 -36 -37 -73 -42 -81 -33 -57 -83 -262 -101 -415 -33 -286 94 -676
289 -884 28 -30 51 -58 51 -62 0 -7 89 -84 175 -152 71 -56 193 -113 335 -158
36 -11 88 -28 115 -37 41 -14 89 -17 265 -17 152 1 222 4 237 13 13 7 42 17
65 22 105 22 137 32 149 46 6 8 17 14 24 14 16 0 91 34 126 58 15 9 48 30 75
46 27 16 65 43 84 61 19 17 48 41 63 53 50 37 156 162 202 238 81 134 156 336
175 472 21 141 6 452 -24 512 -7 14 -20 52 -30 85 -24 83 -120 272 -170 335
-80 102 -238 249 -317 295 -104 61 -160 89 -209 106 -30 10 -82 28 -115 39
-101 35 -403 59 -485 40z m195 -55 c39 -8 102 -15 140 -15 45 0 77 -6 89 -15
11 -8 30 -15 42 -15 12 0 35 -7 50 -15 16 -8 36 -15 44 -15 32 0 256 -121 285
-154 6 -6 32 -29 59 -51 98 -79 191 -188 246 -290 72 -133 80 -149 80 -167 0
-10 6 -31 14 -46 7 -15 17 -45 21 -67 4 -22 10 -44 15 -50 4 -5 10 -50 14
-100 3 -49 11 -107 17 -128 7 -27 7 -48 0 -69 -6 -17 -14 -74 -17 -127 -4 -53
-11 -102 -17 -109 -5 -7 -13 -29 -18 -50 -16 -74 -35 -132 -47 -144 -7 -7 -12
-20 -12 -29 0 -10 -5 -21 -10 -24 -6 -4 -23 -34 -39 -69 -40 -83 -165 -234
-246 -295 -16 -12 -48 -39 -70 -59 -22 -21 -89 -61 -150 -90 -60 -29 -118 -58
-127 -63 -10 -5 -27 -9 -38 -9 -12 0 -33 -6 -48 -14 -121 -61 -526 -61 -659 0
-17 7 -42 14 -56 14 -14 0 -28 4 -31 9 -3 5 -22 12 -41 15 -19 4 -35 11 -35
15 0 5 -12 14 -27 20 -16 6 -35 15 -43 20 -8 5 -22 12 -30 15 -25 10 -51 28
-130 91 -86 69 -87 70 -160 156 -30 35 -63 73 -73 84 -10 11 -36 56 -58 100
-22 44 -44 87 -48 95 -19 34 -41 92 -41 106 0 9 -6 30 -13 47 -8 18 -22 66
-32 107 -24 100 -25 372 -1 439 9 24 16 54 16 66 0 13 7 36 15 51 8 16 15 36
15 45 0 18 24 83 42 114 6 11 29 53 49 92 50 97 171 236 298 342 53 44 94 69
188 115 28 15 54 30 57 35 3 5 26 12 51 15 24 4 47 11 50 17 4 5 18 9 33 9 15
0 36 6 47 14 12 7 63 16 122 20 78 5 148 17 148 25 0 1 32 -6 70 -14z"/>
<path d="M3200 3239 c-41 -4 -424 -8 -850 -8 -518 -1 -788 -5 -815 -12 -22 -6
-65 -15 -95 -20 -30 -6 -59 -14 -64 -20 -6 -5 -21 -9 -35 -9 -15 0 -35 -7 -45
-15 -11 -8 -28 -15 -39 -15 -17 0 -49 -14 -97 -41 -8 -5 -21 -11 -28 -14 -36
-15 -42 -18 -119 -68 -24 -15 -45 -27 -48 -27 -8 0 -69 -44 -73 -52 -2 -5 -9
-8 -16 -8 -6 0 -32 -19 -56 -43 -25 -23 -57 -51 -72 -63 -49 -38 -195 -220
-253 -316 -39 -65 -115 -224 -115 -242 0 -11 -7 -30 -15 -40 -8 -11 -15 -31
-15 -44 0 -13 -7 -45 -15 -71 -58 -184 -73 -333 -51 -523 8 -76 19 -145 24
-155 5 -10 12 -43 15 -73 4 -30 16 -80 28 -110 11 -30 25 -71 31 -90 5 -19 14
-39 18 -45 4 -5 23 -39 42 -75 20 -36 45 -81 57 -100 11 -19 24 -42 28 -50 15
-34 113 -151 195 -234 111 -110 334 -276 373 -276 7 0 37 -14 68 -30 31 -17
65 -30 75 -30 10 0 22 -4 28 -9 9 -8 97 -36 204 -64 108 -29 320 -39 484 -23
82 8 154 20 159 25 6 6 22 11 36 11 27 0 151 38 166 52 5 4 16 8 25 8 8 0 42
14 75 30 33 16 65 30 71 30 38 0 266 169 374 278 81 81 176 196 193 232 4 8
17 31 28 50 12 19 37 64 57 100 19 36 38 70 42 75 4 6 13 26 18 45 6 19 22 66
36 104 14 38 26 81 26 95 0 15 5 32 10 37 22 22 33 216 36 644 11 1247 11
1210 -11 1209 -11 -1 -54 -5 -95 -10z m-76 -66 c83 -5 95 -8 103 -27 6 -12 11
-350 12 -803 2 -688 0 -792 -14 -865 -40 -207 -127 -409 -257 -600 -40 -58
-228 -253 -294 -304 -54 -42 -238 -154 -254 -154 -7 0 -29 -9 -49 -19 -20 -11
-65 -29 -101 -41 -36 -11 -74 -25 -85 -30 -11 -5 -51 -17 -90 -26 -57 -15
-113 -18 -305 -18 -231 0 -311 9 -395 44 -11 4 -51 18 -89 30 -37 12 -82 30
-100 40 -17 10 -42 21 -54 25 -39 12 -232 132 -232 144 0 4 -15 15 -34 25 -61
33 -260 249 -288 312 -7 16 -25 44 -41 63 -42 49 -147 271 -147 310 0 9 -7 28
-14 43 -28 54 -51 226 -51 388 0 183 8 265 34 346 10 32 22 75 26 94 8 47 28
95 92 225 71 144 182 298 282 390 30 28 64 60 76 73 12 12 27 22 34 22 6 0 21
11 33 25 12 14 25 25 29 25 8 0 135 76 159 94 8 7 35 20 60 30 25 10 65 28 90
41 25 12 61 26 80 30 19 4 69 18 110 31 56 18 108 26 205 30 72 3 131 7 133 9
7 6 1243 4 1336 -2z"/>
<path d="M3600 3246 c-9 -8 8 -1629 17 -1721 6 -49 15 -101 21 -115 6 -14 14
-46 17 -72 3 -26 10 -50 16 -53 5 -4 9 -15 9 -25 0 -19 18 -66 46 -123 8 -16
14 -37 14 -47 0 -9 7 -23 15 -30 8 -7 15 -17 15 -22 0 -17 88 -157 150 -237
51 -68 192 -212 260 -266 46 -37 175 -121 220 -143 25 -13 52 -27 60 -31 14
-9 44 -22 122 -55 20 -9 43 -16 51 -16 8 0 28 -7 43 -15 16 -8 42 -15 57 -15
16 0 38 -5 50 -12 79 -42 595 -42 674 0 12 7 34 12 50 12 15 0 41 7 57 15 15
8 36 15 45 15 10 0 26 7 37 15 10 8 29 15 41 15 12 0 28 7 37 15 8 8 23 15 34
15 11 0 25 7 32 15 7 8 20 15 30 15 10 0 23 7 30 15 7 8 16 15 21 15 30 0 240
163 330 256 70 72 179 206 179 219 0 3 14 24 30 47 17 22 30 47 30 53 0 7 7
18 15 25 8 7 15 21 15 31 0 11 4 19 10 19 5 0 13 12 16 27 4 16 13 37 20 48 8
11 14 27 14 36 0 10 6 30 14 46 20 39 46 124 46 148 0 11 8 40 17 65 13 37 16
88 16 280 0 157 -4 250 -12 280 -7 25 -16 65 -20 90 -4 25 -13 55 -19 67 -7
12 -12 31 -12 42 0 24 -16 63 -84 199 -56 114 -56 114 -107 192 -46 70 -86
117 -179 210 -98 98 -182 170 -197 170 -7 0 -13 4 -13 8 0 5 -10 14 -22 21
-13 6 -36 20 -53 31 -16 10 -64 35 -105 56 -41 20 -87 43 -102 50 -14 8 -34
14 -45 14 -10 0 -27 7 -37 15 -11 8 -31 15 -45 15 -14 1 -37 7 -51 15 -14 8
-42 14 -63 15 -21 0 -48 6 -60 13 -17 9 -222 13 -887 18 -476 3 -874 9 -885
13 -11 4 -23 5 -25 2z m1867 -114 c10 -5 45 -15 78 -22 33 -7 112 -37 175 -68
105 -50 145 -74 294 -177 106 -74 276 -256 322 -347 9 -18 22 -40 29 -48 19
-23 100 -186 135 -275 18 -44 36 -107 41 -140 4 -33 13 -96 19 -140 22 -149 4
-409 -40 -585 -17 -69 -111 -281 -150 -340 -10 -14 -34 -52 -55 -84 -154 -240
-438 -458 -710 -546 -38 -13 -78 -27 -89 -32 -10 -5 -68 -18 -128 -29 -220
-38 -604 -17 -683 37 -11 8 -29 14 -41 14 -25 0 -212 80 -252 108 -15 11 -52
33 -83 49 -64 34 -257 197 -290 246 -13 18 -38 49 -56 70 -18 20 -33 43 -33
50 0 7 -8 17 -19 24 -27 17 -121 184 -153 273 -11 30 -24 64 -28 75 -29 64
-66 220 -74 315 -3 36 -6 402 -7 813 0 667 1 751 16 773 l15 24 763 2 c669 3
776 1 874 -14 61 -9 119 -21 130 -26z"/>
</g>
</svg>
